<svg width="24" height="23" viewBox="0 0 24 23" fill="none" xmlns="http://www.w3.org/2000/svg">
<path d="M19.1177 19.1177H20.7595C21.3222 19.1177 21.6036 19.1177 21.8117 19.0495C22.5457 18.8087 23.0399 17.9829 22.9975 17.0682C22.9854 16.809 22.8965 16.4875 22.7186 15.8446C22.5704 15.3096 22.4964 15.0421 22.3949 14.8169C22.0437 14.0377 21.4168 13.4937 20.692 13.3389C20.4825 13.2941 20.2484 13.2941 19.78 13.2941L16.5295 13.3389M15.4811 10.9642C15.9934 11.2132 16.5687 11.353 17.1765 11.353C19.3207 11.353 21.0589 9.61483 21.0589 7.4706C21.0589 5.32644 19.3207 3.58824 17.1765 3.58824C16.8265 3.58824 16.4873 3.63457 16.1646 3.72142M13.9412 6.17648C13.9412 9.03532 11.6236 11.353 8.76473 11.353C5.90583 11.353 3.58824 9.03532 3.58824 6.17648C3.58824 3.31759 5.90583 1 8.76473 1C11.6236 1 13.9412 3.31759 13.9412 6.17648ZM5.29344 13.9412H12.2361C12.8605 13.9412 13.1726 13.9412 13.4519 14.0009C14.4185 14.2073 15.2544 14.9326 15.7226 15.9717C15.8579 16.2718 15.9567 16.6284 16.1542 17.3419C16.3914 18.199 16.51 18.6276 16.5261 18.9733C16.5826 20.1928 15.9235 21.294 14.9449 21.615C14.6676 21.7059 14.2924 21.7059 13.5421 21.7059H3.9874C3.23707 21.7059 2.86192 21.7059 2.58454 21.615C1.60588 21.294 0.946789 20.1928 1.00338 18.9733C1.01943 18.6276 1.13806 18.199 1.37534 17.3419C1.57281 16.6284 1.67154 16.2718 1.80684 15.9717C2.2751 14.9326 3.11092 14.2073 4.0775 14.0009C4.35678 13.9412 4.669 13.9412 5.29344 13.9412Z" stroke="currentColor" stroke-width="1.2" stroke-linecap="round" stroke-linejoin="round"/>
</svg>
